<?xml version="1.0" encoding="utf-8"?>
<!-- Generator: Adobe Illustrator 26.3.1, SVG Export Plug-In . SVG Version: 6.00 Build 0)  -->
<svg version="1.1" id="Calque_4" xmlns="http://www.w3.org/2000/svg" xmlns:xlink="http://www.w3.org/1999/xlink" x="0px" y="0px"
	 viewBox="0 0 500 500" style="enable-background:new 0 0 500 500;" xml:space="preserve">
<style type="text/css">
	.st0{fill:#F9B000;}
	.st1{fill:#4D3677;}
</style>
<path class="st0" d="M356.6,145.4v27.3c0,4.8-3.9,8.7-8.7,8.7h-29.5v84.5c1.9,81.1-133.1,84-137.5,2.4l-0.1-36.4
	c15.6,0.9,32.7-7.5,44.7-21.3v43.9c0,35.4,48.2,35.4,48.2,0l-0.1-73.1h-26.4c-4.8,0-8.7-3.9-8.7-8.7v-27.3c0-4.8,3.9-8.7,8.7-8.7
	h100.7C352.7,136.7,356.6,140.6,356.6,145.4z"/>
<path class="st1" d="M180.8,266.1V196c6.5,3.8,14.1,6,22.3,6c8.2,0,15.8-2.2,22.4-6v58.6c-0.1,1.5-0.6,13.3,8.4,20.8
	c9.7,8.1,24.3,6.2,32-0.9c6.6-6.1,7.6-15.5,7.7-16.2c0.1-1.3,0.1-2,0-13.3c0-3.1,0-5.6,0-7.2c0.6,11.4,8.6,20.6,18.3,22.3
	c12,2.1,25.1-7.6,26.4-22.1c0,2.1-0.1,5.4-0.1,9.3c-0.1,19.6,0.3,20.5,0,24.8c-0.3,3.7-1.4,16.2-9.4,28.4c-7,10.6-16,15.9-20.4,18.5
	c-17,9.8-34.5,9.4-40.8,9.2c-0.9,0-1.6-0.1-1.8-0.1c-15.9-0.7-27.1-6-29.9-7.4c-5.2-2.6-15.8-8-24.2-19.9
	C181.8,286.8,180.8,272.2,180.8,266.1z"/>
<circle class="st1" cx="202.4" cy="159.9" r="25"/>
<circle class="st0" cx="248.5" cy="221.8" r="12.8"/>
</svg>
